<svg xmlns="http://www.w3.org/2000/svg" viewBox="0 0 64 64">
  <rect width="64" height="64" rx="14" fill="#006B4F"/>
  <path d="M18 12h22l8 8v30a2 2 0 0 1-2 2H18a2 2 0 0 1-2-2V14a2 2 0 0 1 2-2z" fill="#fff"/>
  <path d="M40 12v6a2 2 0 0 0 2 2h6z" fill="#B7E4D4"/>
  <rect x="22" y="26" width="18" height="3" rx="1.5" fill="#006B4F"/>
  <rect x="22" y="33" width="14" height="3" rx="1.5" fill="#006B4F"/>
  <rect x="22" y="40" width="10" height="3" rx="1.5" fill="#006B4F"/>
  <circle cx="46" cy="46" r="11" fill="#DC2626" stroke="#fff" stroke-width="3"/>
  <rect x="44.5" y="39.5" width="3" height="8" rx="1.5" fill="#fff"/>
  <circle cx="46" cy="51.5" r="1.8" fill="#fff"/>
</svg>
